<svg width="437" height="350" viewBox="0 0 437 350" fill="none" xmlns="http://www.w3.org/2000/svg">
<rect width="419" height="343" transform="matrix(1 0 0 -1 0 349)" fill="white"/>
<g filter="url(#filter0_i_669_2990)">
<path fill-rule="evenodd" clip-rule="evenodd" d="M137.009 17.9999C99.5086 38.9998 43.5087 99.4999 35.0085 141C27.8397 176 27.4761 262.5 29.5085 277.5C39.9222 354.358 210.645 349.094 213.473 349.001C216.301 349.094 387.024 354.358 397.438 277.5C399.47 262.5 399.106 176 391.938 141C383.437 99.4999 327.437 38.9998 289.937 17.9999C269.862 6.75744 215.74 6.02621 213.509 6.00076V6C213.509 6 213.497 6.00011 213.473 6.00037C213.449 6.00011 213.437 6 213.437 6V6.00076C211.206 6.02621 157.084 6.75744 137.009 17.9999Z" fill="white"/>
<g filter="url(#filter1_dd_669_2990)">
<path fill-rule="evenodd" clip-rule="evenodd" d="M213.844 6.12734C194.178 5.61139 162.693 6.33569 141.904 14.5594C99.6036 31.2931 59.4375 91.025 59.4375 91.025C59.4375 91.025 85.9322 109.886 107.974 117.87C130.016 125.854 172.969 125.854 172.969 125.854C172.969 125.854 187.729 147.574 213.844 146.988C239.821 147.574 254.504 125.854 254.504 125.854C254.504 125.854 297.231 125.854 319.156 117.87C341.082 109.886 367.438 91.025 367.438 91.025C367.438 91.025 327.483 31.2931 285.405 14.5594C264.726 6.33569 233.407 5.61139 213.844 6.12734Z" fill="white"/>
</g>
</g>
<g filter="url(#filter2_i_669_2990)">
<path d="M21.7383 138.802C22.9854 135.263 20.3874 132.306 17.9662 135.173C14.6413 139.109 11.5292 145.884 8.9006 155.093C4.50541 170.49 1.82169 191.431 1.43982 213.308C1.05796 235.185 3.00923 256.206 6.86438 271.748C9.17003 281.043 12.0437 287.922 15.2293 291.972C17.5489 294.921 20.2486 292.057 19.1257 288.477C15.6024 277.243 10.1726 253.253 10.867 213.473C11.5613 173.692 17.8251 149.906 21.7383 138.802Z" fill="#363636"/>
</g>
<g filter="url(#filter3_di_669_2990)">
<path d="M59.4375 169.934C59.4375 151.09 78.3351 137.803 96.3576 143.307C128.855 153.231 176.601 165.545 213.437 165.545C250.274 165.545 298.02 153.231 330.517 143.307C348.54 137.803 367.437 151.09 367.437 169.934V265.25C367.437 281.547 357.55 296.17 341.955 300.901C314.017 309.376 266.101 321 213.437 321C155.062 321 102.519 306.718 76.553 298.273C66.0923 294.871 59.4375 285.013 59.4375 274.013V169.934Z" fill="#606060"/>
</g>
<g filter="url(#filter4_f_669_2990)">
<circle cx="135.938" cy="222.5" r="22.5" fill="#00FFEF"/>
</g>
<g filter="url(#filter5_f_669_2990)">
<circle cx="285.938" cy="222.5" r="22.5" fill="#00FFEF"/>
</g>
<g filter="url(#filter6_f_669_2990)">
<rect x="211.438" y="275" width="5" height="31" rx="2.5" fill="#09EDDF"/>
</g>
<g filter="url(#filter7_f_669_2990)">
<rect x="222.438" y="275" width="5" height="31" rx="2.5" fill="#09EDDF"/>
</g>
<g filter="url(#filter8_f_669_2990)">
<rect x="200.438" y="275" width="5" height="31" rx="2.5" fill="#09EDDF"/>
</g>
<g filter="url(#filter9_f_669_2990)">
<rect x="189.438" y="275" width="5" height="27" rx="2.5" fill="#09EDDF"/>
</g>
<g filter="url(#filter10_f_669_2990)">
<rect x="233.438" y="275" width="5" height="27" rx="2.5" fill="#09EDDF"/>
</g>
<g filter="url(#filter11_f_669_2990)">
<rect x="244.438" y="275" width="5" height="19" rx="2.5" fill="#09EDDF"/>
</g>
<g filter="url(#filter12_f_669_2990)">
<rect x="178.438" y="275" width="5" height="19" rx="2.5" fill="#09EDDF"/>
</g>
<rect width="203" height="343" transform="matrix(1 0 0 -1 216 349)" fill="white"/>
<rect width="203" height="343" transform="matrix(1 0 0 -1 216 349)" fill="url(#paint0_linear_669_2990)" fill-opacity="0.1"/>
<path d="M389.709 220.217L388.907 206.71C391.539 204.798 393.956 202.607 396.116 200.174L409.442 202.078C409.944 202.149 410.456 202.056 410.901 201.812C411.346 201.568 411.7 201.188 411.912 200.726L417.469 188.86C417.686 188.401 417.749 187.884 417.649 187.386C417.55 186.888 417.292 186.436 416.915 186.096L406.955 177.158C407.489 173.885 407.66 170.563 407.464 167.252L418.167 159.238C418.555 158.923 418.832 158.493 418.959 158.01C419.087 157.527 419.057 157.016 418.876 156.55L414.402 144.257C414.228 143.785 413.908 143.382 413.489 143.104C413.07 142.827 412.573 142.691 412.072 142.716L398.757 143.443C396.775 140.754 394.499 138.295 391.973 136.109L393.888 123.056C393.958 122.553 393.865 122.041 393.621 121.595C393.377 121.15 392.997 120.795 392.535 120.583L380.707 114.879C380.249 114.661 379.732 114.598 379.235 114.697C378.737 114.797 378.285 115.054 377.946 115.431L369.19 125.29C365.907 124.756 362.575 124.587 359.255 124.788L351.24 114.072C350.936 113.671 350.513 113.378 350.031 113.234C349.55 113.091 349.036 113.105 348.563 113.275L336.282 117.745C335.811 117.919 335.408 118.238 335.131 118.658C334.854 119.077 334.719 119.574 334.744 120.076L335.518 133.509C332.9 135.481 330.505 137.734 328.376 140.228L314.796 138.416C314.294 138.345 313.782 138.439 313.337 138.682C312.892 138.926 312.537 139.306 312.326 139.768L306.805 151.621C306.588 152.08 306.525 152.597 306.625 153.095C306.724 153.593 306.982 154.045 307.359 154.385L317.445 163.442C316.979 166.622 316.855 169.843 317.074 173.05L306.153 181.144C305.753 181.447 305.46 181.87 305.317 182.352C305.174 182.834 305.189 183.349 305.358 183.822L309.833 196.115C310.007 196.586 310.327 196.99 310.746 197.267C311.165 197.544 311.661 197.68 312.163 197.656L325.768 196.823C327.657 199.394 329.813 201.757 332.201 203.872L330.287 217.379C330.216 217.881 330.31 218.394 330.554 218.839C330.798 219.285 331.178 219.64 331.639 219.852L343.487 225.384C343.946 225.601 344.462 225.665 344.96 225.565C345.457 225.466 345.909 225.209 346.249 224.832L355.315 214.694C358.484 215.178 361.695 215.321 364.893 215.121L372.988 226.055C373.291 226.456 373.715 226.749 374.196 226.893C374.678 227.036 375.192 227.022 375.665 226.852L388.055 222.343C388.514 222.2 388.919 221.919 389.215 221.539C389.51 221.159 389.683 220.698 389.709 220.217ZM342.153 177.514C340.713 173.558 340.477 169.264 341.476 165.175C342.474 161.086 344.662 157.386 347.763 154.543C350.863 151.7 354.737 149.841 358.895 149.202C363.052 148.563 367.307 149.172 371.12 150.952C374.933 152.733 378.133 155.604 380.317 159.204C382.5 162.804 383.568 166.97 383.386 171.176C383.204 175.381 381.78 179.438 379.293 182.832C376.807 186.226 373.37 188.805 369.418 190.244C364.118 192.173 358.268 191.916 353.154 189.528C348.041 187.141 344.084 182.819 342.153 177.514Z" fill="#464646"/>
<path fill-rule="evenodd" clip-rule="evenodd" d="M222 193H233.136C233.946 192.996 234.734 192.734 235.385 192.252C236.036 191.77 236.516 191.093 236.755 190.32L242.994 169.251C247.931 167.807 252.699 165.843 257.221 163.392L276.625 173.739C277.348 174.123 278.176 174.263 278.984 174.14C279.305 174.091 279.615 174.002 279.909 173.876C280.358 173.684 280.77 173.405 281.117 173.053L296.029 158.156C296.374 157.816 296.648 157.416 296.84 156.978C296.973 156.676 297.066 156.356 297.117 156.025C297.24 155.217 297.1 154.39 296.716 153.668L286.358 134.345C288.838 129.811 290.825 125.026 292.286 120.07L313.312 113.837C314.087 113.598 314.765 113.119 315.247 112.468C315.425 112.229 315.572 111.971 315.688 111.701C315.888 111.236 315.993 110.733 315.996 110.222V88.9663C316.032 88.1911 315.831 87.4233 315.418 86.7659C315.006 86.1084 314.401 85.593 313.688 85.2886L292.785 79.0552C291.34 74.0144 289.353 69.1448 286.857 64.5317L297.09 45.3955C297.475 44.6731 297.615 43.8464 297.491 43.0378C297.367 42.2295 296.986 41.4822 296.404 40.9075L281.491 25.9475C280.916 25.3657 280.168 24.9848 279.359 24.8613C278.55 24.7378 277.723 24.8782 276.999 25.2619L257.969 35.4221C253.306 32.8083 248.367 30.7178 243.244 29.1887L237.005 8.55662C236.74 7.79612 236.242 7.13914 235.58 6.67991C234.919 6.22068 234.129 5.98289 233.323 6.00096H222V65.2261C226.746 65.1184 231.485 65.9956 235.911 67.8269C242.182 70.4219 247.541 74.8159 251.312 80.4538C255.083 86.0915 257.096 92.72 257.096 99.5005C257.096 108.593 253.48 117.313 247.044 123.742C240.608 130.172 231.88 133.784 222.778 133.784C222.519 133.784 222.259 133.781 222 133.775V193Z" fill="#464646"/>
<path fill-rule="evenodd" clip-rule="evenodd" d="M222 309.53V235.977L233.046 237.795C235.871 234.642 239.038 231.814 242.488 229.361L241.861 212.475C241.852 212.15 241.895 211.827 241.987 211.519C242.075 211.225 242.209 210.945 242.385 210.689C242.746 210.164 243.265 209.767 243.865 209.557L259.54 204.16C260.135 203.94 260.782 203.915 261.392 204.087C262.001 204.259 262.54 204.62 262.931 205.117L272.849 218.856C277.048 218.681 281.254 218.971 285.389 219.72L296.933 207.298C297.372 206.828 297.951 206.512 298.584 206.396C298.894 206.34 299.207 206.333 299.515 206.374C299.837 206.416 300.152 206.512 300.447 206.658L315.359 213.961C315.939 214.239 316.414 214.696 316.713 215.266C317.012 215.835 317.119 216.485 317.019 217.121L314.311 233.963C317.346 236.753 320.069 239.864 322.434 243.241L339.564 242.524C340.173 242.568 340.754 242.796 341.229 243.18C341.523 243.416 341.768 243.705 341.952 244.03C342.065 244.23 342.156 244.444 342.222 244.667L347.661 260.466C347.776 260.805 347.829 261.161 347.818 261.515C347.81 261.789 347.764 262.062 347.68 262.327C347.487 262.934 347.106 263.464 346.593 263.839L332.559 273.854C332.741 277.911 332.489 281.976 331.807 285.98L344.45 297.692C344.921 298.131 345.236 298.709 345.352 299.342C345.467 299.974 345.374 300.627 345.089 301.203L337.817 316.093C337.539 316.672 337.08 317.147 336.511 317.446C335.94 317.745 335.29 317.852 334.654 317.752L317.583 315.028C314.851 318.006 311.809 320.687 308.509 323.023L309.264 340.28C309.283 340.916 309.101 341.542 308.74 342.067C308.38 342.592 307.861 342.988 307.26 343.198L291.585 348.596C290.981 348.8 290.329 348.807 289.722 348.615C289.114 348.424 288.585 348.043 288.209 347.53L278.195 333.513C274.127 333.72 270.049 333.491 266.029 332.831L254.331 345.41C253.892 345.88 253.312 346.196 252.68 346.311C252.047 346.427 251.394 346.335 250.816 346.05L235.92 338.793C235.341 338.515 234.866 338.057 234.567 337.488C234.269 336.919 234.161 336.268 234.262 335.633L236.858 318.467C233.745 315.714 230.944 312.63 228.504 309.268L222 309.53ZM268.757 302.42C273.915 303.776 279.361 303.572 284.406 301.835C291.171 299.506 296.734 294.587 299.872 288.162C303.01 281.736 303.466 274.329 301.139 267.571C299.403 262.531 296.211 258.12 291.966 254.894C287.72 251.669 282.611 249.775 277.287 249.451C271.962 249.127 266.66 250.388 262.051 253.075C257.441 255.762 253.732 259.754 251.392 264.546C249.052 269.338 248.186 274.715 248.904 279.996C249.622 285.278 251.891 290.228 255.425 294.219C258.958 298.211 263.598 301.064 268.757 302.42Z" fill="#464646"/>
<defs>
<filter id="filter0_i_669_2990" x="28.4375" y="6" width="370.071" height="343.108" filterUnits="userSpaceOnUse" color-interpolation-filters="sRGB">
<feFlood flood-opacity="0" result="BackgroundImageFix"/>
<feBlend mode="normal" in="SourceGraphic" in2="BackgroundImageFix" result="shape"/>
<feColorMatrix in="SourceAlpha" type="matrix" values="0 0 0 0 0 0 0 0 0 0 0 0 0 0 0 0 0 0 127 0" result="hardAlpha"/>
<feOffset/>
<feGaussianBlur stdDeviation="12.55"/>
<feComposite in2="hardAlpha" operator="arithmetic" k2="-1" k3="1"/>
<feColorMatrix type="matrix" values="0 0 0 0 0 0 0 0 0 0 0 0 0 0 0 0 0 0 0.2 0"/>
<feBlend mode="normal" in2="shape" result="effect1_innerShadow_669_2990"/>
</filter>
<filter id="filter1_dd_669_2990" x="49.4375" y="0.5" width="328" height="162.5" filterUnits="userSpaceOnUse" color-interpolation-filters="sRGB">
<feFlood flood-opacity="0" result="BackgroundImageFix"/>
<feColorMatrix in="SourceAlpha" type="matrix" values="0 0 0 0 0 0 0 0 0 0 0 0 0 0 0 0 0 0 127 0" result="hardAlpha"/>
<feOffset dy="6"/>
<feGaussianBlur stdDeviation="5"/>
<feComposite in2="hardAlpha" operator="out"/>
<feColorMatrix type="matrix" values="0 0 0 0 0 0 0 0 0 0 0 0 0 0 0 0 0 0 0.15 0"/>
<feBlend mode="normal" in2="BackgroundImageFix" result="effect1_dropShadow_669_2990"/>
<feColorMatrix in="SourceAlpha" type="matrix" values="0 0 0 0 0 0 0 0 0 0 0 0 0 0 0 0 0 0 127 0" result="hardAlpha"/>
<feOffset dy="1"/>
<feGaussianBlur stdDeviation="3.25"/>
<feComposite in2="hardAlpha" operator="out"/>
<feColorMatrix type="matrix" values="0 0 0 0 0 0 0 0 0 0 0 0 0 0 0 0 0 0 0.1 0"/>
<feBlend mode="normal" in2="effect1_dropShadow_669_2990" result="effect2_dropShadow_669_2990"/>
<feBlend mode="normal" in="SourceGraphic" in2="effect2_dropShadow_669_2990" result="shape"/>
</filter>
<filter id="filter2_i_669_2990" x="1.39258" y="134.02" width="20.6689" height="159.176" filterUnits="userSpaceOnUse" color-interpolation-filters="sRGB">
<feFlood flood-opacity="0" result="BackgroundImageFix"/>
<feBlend mode="normal" in="SourceGraphic" in2="BackgroundImageFix" result="shape"/>
<feColorMatrix in="SourceAlpha" type="matrix" values="0 0 0 0 0 0 0 0 0 0 0 0 0 0 0 0 0 0 127 0" result="hardAlpha"/>
<feOffset/>
<feGaussianBlur stdDeviation="11.5"/>
<feComposite in2="hardAlpha" operator="arithmetic" k2="-1" k3="1"/>
<feColorMatrix type="matrix" values="0 0 0 0 0 0 0 0 0 0 0 0 0 0 0 0 0 0 0.5 0"/>
<feBlend mode="normal" in2="shape" result="effect1_innerShadow_669_2990"/>
</filter>
<filter id="filter3_di_669_2990" x="39.4375" y="122.053" width="348" height="218.947" filterUnits="userSpaceOnUse" color-interpolation-filters="sRGB">
<feFlood flood-opacity="0" result="BackgroundImageFix"/>
<feColorMatrix in="SourceAlpha" type="matrix" values="0 0 0 0 0 0 0 0 0 0 0 0 0 0 0 0 0 0 127 0" result="hardAlpha"/>
<feOffset/>
<feGaussianBlur stdDeviation="10"/>
<feComposite in2="hardAlpha" operator="out"/>
<feColorMatrix type="matrix" values="0 0 0 0 0 0 0 0 0 0 0 0 0 0 0 0 0 0 0.3 0"/>
<feBlend mode="normal" in2="BackgroundImageFix" result="effect1_dropShadow_669_2990"/>
<feBlend mode="normal" in="SourceGraphic" in2="effect1_dropShadow_669_2990" result="shape"/>
<feColorMatrix in="SourceAlpha" type="matrix" values="0 0 0 0 0 0 0 0 0 0 0 0 0 0 0 0 0 0 127 0" result="hardAlpha"/>
<feOffset/>
<feGaussianBlur stdDeviation="81.5"/>
<feComposite in2="hardAlpha" operator="arithmetic" k2="-1" k3="1"/>
<feColorMatrix type="matrix" values="0 0 0 0 0 0 0 0 0 0 0 0 0 0 0 0 0 0 0.7 0"/>
<feBlend mode="normal" in2="shape" result="effect2_innerShadow_669_2990"/>
</filter>
<filter id="filter4_f_669_2990" x="98.4375" y="185" width="75" height="75" filterUnits="userSpaceOnUse" color-interpolation-filters="sRGB">
<feFlood flood-opacity="0" result="BackgroundImageFix"/>
<feBlend mode="normal" in="SourceGraphic" in2="BackgroundImageFix" result="shape"/>
<feGaussianBlur stdDeviation="7.5" result="effect1_foregroundBlur_669_2990"/>
</filter>
<filter id="filter5_f_669_2990" x="248.438" y="185" width="75" height="75" filterUnits="userSpaceOnUse" color-interpolation-filters="sRGB">
<feFlood flood-opacity="0" result="BackgroundImageFix"/>
<feBlend mode="normal" in="SourceGraphic" in2="BackgroundImageFix" result="shape"/>
<feGaussianBlur stdDeviation="7.5" result="effect1_foregroundBlur_669_2990"/>
</filter>
<filter id="filter6_f_669_2990" x="207.438" y="271" width="13" height="39" filterUnits="userSpaceOnUse" color-interpolation-filters="sRGB">
<feFlood flood-opacity="0" result="BackgroundImageFix"/>
<feBlend mode="normal" in="SourceGraphic" in2="BackgroundImageFix" result="shape"/>
<feGaussianBlur stdDeviation="2" result="effect1_foregroundBlur_669_2990"/>
</filter>
<filter id="filter7_f_669_2990" x="218.438" y="271" width="13" height="39" filterUnits="userSpaceOnUse" color-interpolation-filters="sRGB">
<feFlood flood-opacity="0" result="BackgroundImageFix"/>
<feBlend mode="normal" in="SourceGraphic" in2="BackgroundImageFix" result="shape"/>
<feGaussianBlur stdDeviation="2" result="effect1_foregroundBlur_669_2990"/>
</filter>
<filter id="filter8_f_669_2990" x="196.438" y="271" width="13" height="39" filterUnits="userSpaceOnUse" color-interpolation-filters="sRGB">
<feFlood flood-opacity="0" result="BackgroundImageFix"/>
<feBlend mode="normal" in="SourceGraphic" in2="BackgroundImageFix" result="shape"/>
<feGaussianBlur stdDeviation="2" result="effect1_foregroundBlur_669_2990"/>
</filter>
<filter id="filter9_f_669_2990" x="185.438" y="271" width="13" height="35" filterUnits="userSpaceOnUse" color-interpolation-filters="sRGB">
<feFlood flood-opacity="0" result="BackgroundImageFix"/>
<feBlend mode="normal" in="SourceGraphic" in2="BackgroundImageFix" result="shape"/>
<feGaussianBlur stdDeviation="2" result="effect1_foregroundBlur_669_2990"/>
</filter>
<filter id="filter10_f_669_2990" x="229.438" y="271" width="13" height="35" filterUnits="userSpaceOnUse" color-interpolation-filters="sRGB">
<feFlood flood-opacity="0" result="BackgroundImageFix"/>
<feBlend mode="normal" in="SourceGraphic" in2="BackgroundImageFix" result="shape"/>
<feGaussianBlur stdDeviation="2" result="effect1_foregroundBlur_669_2990"/>
</filter>
<filter id="filter11_f_669_2990" x="240.438" y="271" width="13" height="27" filterUnits="userSpaceOnUse" color-interpolation-filters="sRGB">
<feFlood flood-opacity="0" result="BackgroundImageFix"/>
<feBlend mode="normal" in="SourceGraphic" in2="BackgroundImageFix" result="shape"/>
<feGaussianBlur stdDeviation="2" result="effect1_foregroundBlur_669_2990"/>
</filter>
<filter id="filter12_f_669_2990" x="174.438" y="271" width="13" height="27" filterUnits="userSpaceOnUse" color-interpolation-filters="sRGB">
<feFlood flood-opacity="0" result="BackgroundImageFix"/>
<feBlend mode="normal" in="SourceGraphic" in2="BackgroundImageFix" result="shape"/>
<feGaussianBlur stdDeviation="2" result="effect1_foregroundBlur_669_2990"/>
</filter>
<linearGradient id="paint0_linear_669_2990" x1="3.02494e-06" y1="171.5" x2="203" y2="171.5" gradientUnits="userSpaceOnUse">
<stop/>
<stop offset="0.15625" stop-opacity="0"/>
</linearGradient>
</defs>
</svg>
